<?xml version="1.0" standalone="no"?>
<!DOCTYPE svg PUBLIC "-//W3C//DTD SVG 20010904//EN"
 "http://www.w3.org/TR/2001/REC-SVG-20010904/DTD/svg10.dtd">
<svg version="1.0" xmlns="http://www.w3.org/2000/svg"
 width="500.000000pt" height="500.000000pt" viewBox="0 0 500.000000 500.000000"
 preserveAspectRatio="xMidYMid meet">

<g transform="translate(0.000000,500.000000) scale(0.100000,-0.100000)"
fill="#000000" stroke="none">
<path d="M2470 4933 c-19 -10 -421 -241 -892 -513 -472 -272 -876 -506 -899
-519 -22 -13 -49 -38 -60 -55 -19 -30 -19 -67 -17 -1375 l3 -1343 45 -40 c25
-22 416 -255 870 -517 454 -262 836 -484 850 -493 39 -25 84 -31 121 -15 19 8
329 184 689 392 360 209 768 443 905 522 174 99 257 152 272 174 l23 32 0
1323 c0 889 -3 1339 -11 1372 -6 31 -20 59 -37 75 -15 14 -403 242 -862 508
l-835 482 -65 4 c-49 3 -73 0 -100 -14z m895 -741 l740 -428 0 -1223 0 -1224
-825 -477 -825 -477 -66 36 c-36 20 -393 225 -792 456 l-727 420 0 1205 0
1205 843 486 842 486 35 -18 c19 -10 368 -211 775 -447z"/>
<path d="M2372 3965 c-272 -152 -1168 -675 -1210 -708 -29 -22 -60 -53 -68
-68 -12 -24 -14 -136 -14 -704 0 -753 -5 -705 72 -767 54 -43 1238 -727 1292
-746 28 -9 51 -11 76 -4 40 10 1254 708 1311 754 72 58 69 20 69 765 0 663 0
668 -21 703 -28 46 -42 55 -115 80 -55 19 -65 19 -100 7 -22 -7 -286 -156
-589 -331 -302 -175 -559 -323 -571 -328 -17 -8 -97 35 -475 253 -250 144
-462 267 -472 274 -15 10 53 53 490 305 280 160 518 301 530 313 48 43 53 128
12 181 -52 66 -124 73 -217 21z m-491 -1337 c288 -166 542 -308 563 -316 28
-9 51 -11 76 -4 19 5 270 145 558 311 288 166 530 305 538 308 12 4 14 -67 14
-498 l0 -504 -537 -310 c-294 -170 -552 -318 -572 -328 l-37 -19 -567 328
-567 328 0 503 c0 277 2 503 4 503 2 0 240 -136 527 -302z"/>
</g>
</svg>
